<?xml version="1.0" encoding="UTF-8"?><svg id="a" xmlns="http://www.w3.org/2000/svg" viewBox="0 0 480.9932 600.9654"><defs><style>.b{fill:#fe770c;}.c{fill:#fe980b;}.d{fill:#363460;}.e{fill:#febc0a;}</style></defs><path class="d" d="M468.697,444.2079c-.0048,24.0944-15.1373,43.9823-38.1888,50.5841-12.7781,3.6595-25.7941,6.4868-38.6982,9.7079-31.6756,7.9066-63.3126,15.9729-95.0525,23.612-6.3445,1.527-10.6997,4.5072-14.2892,9.8983-8.3737,12.5766-17.1212,24.9122-25.999,37.1409-2.9989,4.1309-4.7664,10.8794-11.8566,9.2971-6.8331-1.525-6.2203-8.3247-7.471-13.3105-22.0642-87.9487-43.9892-175.9324-65.9396-263.9096-8.8535-35.485-17.7093-70.9695-26.5395-106.4604-8.2925-33.3301,6.9432-59.1244,40.0579-67.4912,46.8924-11.8479,93.8087-23.6022,140.7445-35.277,34.5303-8.589,59.8281,6.5857,68.4401,41.0463,24.1787,96.7496,48.2869,193.5169,72.3997,290.283,1.3151,5.2776,2.5978,10.5816,2.3922,14.8791Zm-136.1852-65.2878c0,12.7006,.1862,25.4048-.059,38.1005-.1954,10.1187-4.3582,14.2874-14.4268,14.757-6.3368,.2955-12.7079-.1529-19.0454,.1352-5.8959,.2678-8.7757-2.3106-10.0823-7.9818-2.7819-12.0748-6.2405-23.9957-8.9296-36.0891-1.2502-5.6219-3.5393-8.0971-9.6943-7.8873-13.29,.453-26.6141,.4168-39.908,.0247-6.6998-.1976-8.3371,1.6522-6.5324,8.2909,5.7885,21.2932,11.0363,42.7332,16.5124,64.1115,4.3368,16.9308,5.1621,18.4762,22.8253,19.9578,28.3378,2.377,56.8428,2.653,85.1346-.1744,25.7154-2.57,39.8002-18.2345,40.3314-44.0589,.6464-31.4287,.7177-62.8917,.0451-94.3186-.6413-29.9629-15.5714-44.9516-45.4482-46.5157-15.6842-.8211-31.4323-.4468-47.1518-.5612-16.2195-.1181-19.6147-3.3079-19.8004-19.7262-.1949-17.2343-.0524-34.4725-.0532-51.709-.0013-28.377,2.0605-30.2329,30.5037-29.4095,7.4437,.2155,11.8864,2.9914,13.5129,10.5036,1.9821,9.1542,4.7359,18.1446,6.6132,27.3168,.9965,4.8688,3.3646,6.3636,8.0745,6.2943,13.9072-.2045,27.8256-.3186,41.7266,.037,6.5245,.1669,7.5669-1.9324,5.991-7.9714-5.4949-21.0557-10.7159-42.1901-15.554-63.4056-1.4977-6.5677-4.9396-10.0077-11.2469-11.1723-4.159-.7679-8.2953-2.1792-12.4662-2.2783-26.5948-.6324-53.2585-1.7151-79.7741,.3478-27.8454,2.1663-42.1571,17.3898-42.9633,45.433-.8512,29.6084-.855,59.2776-.0386,88.8874,.8373,30.3721,16.1126,45.2978,46.4782,46.6371,16.6013,.7322,33.2517,.2747,49.8751,.605,11.1644,.2218,15.3354,4.437,15.5107,15.5329,.191,12.0928,.0434,24.1909,.0398,36.2867Z"/><path class="b" d="M185.7817,95.4454c-5.0163,6.3447-13.7028,4.6416-20.4165,7.3973-3.5523,1.458-6.279,.8305-7.3857-3.706-5.6545-23.1789-11.4953-46.3123-17.2669-69.4626-.219-.8783-.8658-2.0682-.5214-2.6054,4.5261-7.0613,12.7938-4.8456,19.1538-7.4514,2.4906-1.0205,6.4981-2.7702,7.636,1.5961,6.3198,24.25,12.3384,48.5786,18.8007,74.2321Z"/><path class="e" d="M112.4013,211.3759c1.2765,6.2807-1.1418,7.2428-4.0122,7.9542-23.1733,5.7433-46.3387,11.5184-69.5072,17.2812-.5859,.1457-1.3358,.5622-1.7456,.348-8.3816-4.3803-5.2793-13.6073-8.4022-20.2481-1.7402-3.7004-.1775-6.1584,4.0647-7.193,23.1944-5.6569,46.3555-11.4504,69.5133-17.2559,2.6337-.6603,4.9212-.7929,5.7708,2.3549,1.7316,6.4148,3.3218,12.8678,4.3183,16.7588Z"/><path class="c" d="M125.9763,129.0892c.1489,1.5544-10.8534,20.0753-12.3302,20.8869-2.3661,1.3003-4.0624-.3604-5.7737-1.3843-20.4422-12.2316-40.8466-24.5267-61.2609-36.8049-.5168-.3108-1.3606-.5111-1.5046-.9447-2.8947-8.7148,5.8431-12.601,8.1567-19.2134,1.0004-2.8593,2.7163-6.4864,7.3157-3.7074,20.9065,12.6316,41.8631,25.1805,62.7958,37.769,1.2971,.7801,2.5476,1.6414,2.6012,3.3989Z"/></svg>