<?xml version="1.0" encoding="UTF-8"?><svg id="a" xmlns="http://www.w3.org/2000/svg" viewBox="0 0 1152 454.4587"><defs><style>.b{fill:#fe770c;}.c{fill:#3f3d67;}.d{fill:#fe980b;}.e{fill:#3d3c66;}.f{fill:#413f69;}.g{fill:#3e3c66;}.h{fill:#363460;}.i{fill:#403e68;}.j{fill:#383661;}.k{fill:#febc0a;}.l{fill:#3f3e67;}.m{fill:#3d3b66;}.n{fill:#373560;}.o{fill:#373561;}.p{fill:#424069;}.q{fill:#403f68;}</style></defs><path class="h" d="M306.0319,286.4983c-.0031,15.4638-9.7151,28.2279-24.5096,32.4649-8.201,2.3487-16.5547,4.1632-24.8366,6.2305-20.3294,5.0745-40.6341,10.2514-61.0048,15.1542-4.0719,.98-6.8671,2.8927-9.1709,6.3527-5.3742,8.0717-10.9884,15.9886-16.6862,23.8371-1.9247,2.6512-3.0591,6.9824-7.6096,5.9669-4.3855-.9788-3.9922-5.3428-4.7949-8.5427-14.1608-56.4456-28.2323-112.9136-42.3201-169.3775-5.6822-22.7743-11.3659-45.5483-17.033-68.3264-5.3221-21.3913,4.4561-37.9461,25.7092-43.3159,30.0956-7.604,60.2065-15.1479,90.33-22.6408,22.1616-5.5125,38.3977,4.2267,43.9249,26.3436,15.5179,62.094,30.9906,124.1993,46.4662,186.3039,.844,3.3871,1.6673,6.7912,1.5353,9.5494Zm-87.4038-41.9018c0,8.1512,.1195,16.3048-.0378,24.453-.1254,6.4942-2.7971,9.1697-9.2592,9.471-4.067,.1896-8.1559-.0981-12.2233,.0868-3.784,.1719-5.6322-1.4829-6.4708-5.1227-1.7854-7.7496-4.0051-15.4005-5.731-23.162-.8024-3.6082-2.2715-5.1968-6.2218-5.0621-8.5295,.2908-17.081,.2675-25.613,.0159-4.3-.1268-5.3507,1.0604-4.1925,5.3211,3.7151,13.666,7.0831,27.4262,10.5977,41.1468,2.7834,10.8662,3.313,11.8581,14.6493,12.8089,18.1873,1.5255,36.4818,1.7027,54.6395-.1119,16.5041-1.6494,25.5438-11.7029,25.8847-28.277,.4149-20.171,.4606-40.364,.0289-60.5338-.4116-19.2302-9.9937-28.85-29.1687-29.8538-10.0661-.527-20.1732-.2867-30.2621-.3602-10.4097-.0758-12.5887-2.123-12.7079-12.6603-.1251-11.061-.0336-22.1245-.0341-33.1869-.0008-18.2124,1.3224-19.4035,19.5773-18.875,4.7774,.1383,7.6287,1.9199,8.6726,6.7412,1.2721,5.8752,3.0395,11.6452,4.2444,17.532,.6396,3.1248,2.1594,4.0841,5.1822,4.0397,8.9256-.1313,17.8585-.2045,26.7802,.0238,4.1874,.1071,4.8565-1.2402,3.845-5.1161-3.5266-13.5136-6.8775-27.0776-9.9826-40.6938-.9612-4.2151-3.1703-6.423-7.2183-7.1704-2.6693-.4929-5.324-1.3986-8.0008-1.4622-17.0685-.4059-34.1814-1.1008-51.1991,.2232-17.8712,1.3904-27.0565,11.1608-27.5739,29.159-.5463,19.0027-.5487,38.0444-.0248,57.048,.5374,19.4928,10.3411,29.0722,29.8297,29.9317,10.6547,.4699,21.341,.1763,32.0099,.3883,7.1653,.1423,9.8423,2.8477,9.9548,9.969,.1226,7.7611,.0278,15.5257,.0255,23.2888Z"/><path class="n" d="M595.5891,167.0296c0-2.7293,0-4.834,0-6.9388-.0003-19.9759,.1141-39.953-.0907-59.9268-.0447-4.3591,.8053-6.2848,5.679-5.9939,7.1504,.4268,14.3647,.4339,21.5142,.0008,5.0448-.3056,6.0249,1.5743,6.0143,6.2569-.1469,64.9699-.0996,129.9402-.0996,194.9104,0,1.5515-.1845,3.1299,.0359,4.6495,.6519,4.4938-1.364,5.6806-5.6004,5.4977-6.9688-.3009-13.9767-.375-20.9364,.0178-4.9884,.2815-6.6623-1.5838-6.0751-6.3187,.2527-2.0382,.0423-4.1338,.0423-6.7162-3.0024,.6391-4.0038,2.589-5.1414,4.1989-3.4741,4.9165-8.3278,7.6549-14.1179,8.3182-7.1278,.8166-14.3628,.9728-21.4673-.1105-16.0175-2.4424-23.7639-10.6224-23.977-27.026-.4258-32.7704-.41-65.5536-.0155-98.3247,.2049-17.0249,8.5245-25.559,25.5088-27.3474,6.1366-.6462,12.4136-.5162,18.5866-.1192,7.6752,.4935,13.7185,3.9264,16.7782,11.4669,.3606,.8887,.8578,1.732,1.3792,2.5398,.1626,.2519,.6136,.3175,1.9828,.9653Zm-31.6587,60.9656c0,12.0136-.0004,24.0273,0,36.0409,.0006,15.727,1.0166,16.7304,16.8604,16.6553,11.4753-.0544,14.9691-3.5037,14.9761-14.8764,.0143-23.2522,.0047-46.5044,.0045-69.7565-.0001-18.1543-1.6828-19.7907-20.0465-19.4995-9.1419,.145-11.7084,2.6426-11.7698,11.9077-.0872,13.1757-.0222,26.3523-.0249,39.5286Z"/><path class="j" d="M728.4056,237.5658c-9.6999,.0021-19.4021,.1233-29.0985-.0617-3.5408-.0675-4.7348,1.0985-4.662,4.6684,.2019,9.8898-.0502,19.7885,.1212,29.6795,.1226,7.0794,2.4813,9.3327,9.5765,9.5281,5.234,.1442,10.4763,.1031,15.7127,.0132,7.4517-.1279,9.9512-2.6877,10.2596-10.2752q.4116-10.1253,10.7441-10.1252c5.8199,.0004,11.641,.0709,17.4593-.025,2.6881-.0443,3.9241,.9352,3.7981,3.7334-.253,5.6132,.0313,11.2781-.6083,16.8409-1.4663,12.7526-8.6,20.8821-21.3687,22.581-18.2981,2.4344-36.8157,2.3602-55.1135,.1142-14.1979-1.7427-22.1541-11.234-22.3291-26.1466-.3849-32.781-.3764-65.5723-.024-98.3539,.1697-15.7842,8.5813-25.2315,24.3278-26.8241,16.9734-1.7167,34.1424-1.689,51.1218,.0038,15.387,1.534,23.6585,10.8415,24.0817,26.4233,.4896,18.0286,.0601,36.0807,.2251,54.1208,.0325,3.555-1.5145,4.1793-4.5425,4.145-9.8926-.112-19.7873-.042-29.6812-.04Zm2.6363-38.4804c0-4.8491,.1817-9.7067-.0471-14.545-.2716-5.7475-3.0792-8.6133-8.7408-8.8079-6.1958-.213-12.4101-.1746-18.6074,.028-5.8924,.1926-8.7284,2.8161-8.8678,8.5736-.2345,9.6926-.0007,19.3958-.1328,29.0922-.0422,3.101,1.2475,4.034,4.1693,4.001,9.5031-.1074,19.0085-.0973,28.512-.0108,2.7501,.025,3.823-1.0521,3.7574-3.7845-.1163-4.8463-.0326-9.6975-.0429-14.5466Z"/><path class="h" d="M497.7721,229.1831c0,23.4764-.131,46.9541,.1098,70.428,.0485,4.7242-1.4393,6.0508-5.9569,5.8469-7.1641-.3234-14.363-.307-21.5287-.0025-4.1957,.1783-5.6778-1.3749-5.1386-5.3604,.1289-.9526,.1481-1.9596-.0114-2.9027-.2658-1.5718,.9822-3.9096-1.2992-4.5024-1.71-.4444-2.4302,1.6558-3.2316,2.8499-4.9345,7.3523-12.0776,9.9554-20.5516,9.8282-5.8125-.0873-11.6401,.3262-17.423-.6732-13.9642-2.4132-21.4659-10.5829-22.2895-24.8994-.4451-7.737-.4026-15.5076-.4121-23.2632-.04-32.7892,.0886-65.5793-.1298-98.3672-.0331-4.9673,1.5067-6.344,6.2632-6.0914,6.9651,.3699,13.985,.4227,20.9422-.0141,5.0672-.3181,6.0479,1.6135,6.0249,6.281-.179,36.2807-.1023,72.5627-.0966,108.8443,.0018,11.5747,1.8088,13.3406,13.5707,13.3464,1.1641,.0006,2.3282,.0014,3.4924-.0006,11.3078-.019,14.5264-3.0936,14.5478-14.512,.067-35.6995,.1276-71.3998-.087-107.0981-.0312-5.1891,1.0848-7.2872,6.6639-6.871,6.7532,.5037,13.5869,.3893,20.3583,.0272,4.7397-.2535,6.3492,1.1127,6.296,6.0964-.253,23.6677-.1132,47.3396-.1132,71.01Z"/><path class="n" d="M827.2222,165.0219c3.2002-1.1546,3.9902-3.0368,5.1085-4.5312,3.4559-4.6185,8.0571-7.3837,13.7123-7.8965,8.3092-.7536,16.6714-1.0446,24.9289,.5697,11.9187,2.33,18.7016,9.4246,20.5722,21.4411,.4156,2.6694,.5444,5.407,.5468,8.1135,.0343,38.7957-.0842,77.5921,.1525,116.3864,.0322,5.2651-1.5024,6.6926-6.5503,6.3742-6.7623-.4266-13.5873-.3852-20.3558-.0104-4.7613,.2637-6.2763-1.1343-6.2473-6.0864,.2089-35.6909,.1122-71.3835,.1107-107.0756,0-1.7457,.0693-3.4969-.0408-5.2363-.4724-7.4617-3.0288-9.8646-10.5981-10.0608-19.4413-.5041-21.0273,1.0249-21.0273,20.2708,0,33.7523-.1402,67.5057,.1355,101.2558,.0469,5.7448-1.6931,7.3183-7.1901,6.9498-6.9521-.4661-13.9618-.2321-20.9409-.0619-3.3312,.0812-4.8831-.7289-4.8753-4.4943,.0996-48.1065,.0998-96.2134-.0002-144.3199-.0078-3.7662,1.5432-4.5719,4.8741-4.4935,7.1732,.1688,14.3671,.3229,21.5255-.0449,4.7493-.244,6.9012,1.1045,6.2063,6.0915-.2846,2.0424-.0471,4.1576-.0471,6.8589Z"/><path class="o" d="M1053.0775,305.4104c-7.5533-.2459-15.1383,.4843-22.6534-.8786-14.8621-2.6954-22.7313-11.8837-23.0107-26.9237q-.2751-14.819,14.7206-14.8188c4.4632,.0001,8.9298,.109,13.3884-.0335,2.9499-.0944,3.976,.9607,4.1445,4.0176,.8898,16.1508,1.1185,16.2749,17.299,15.8057,7.6497-.2218,9.9908-2.5272,10.094-10.2695,.0957-7.1786,.0978-14.3606,.0016-21.5392-.1066-7.9507-2.4432-10.1694-10.6316-10.3169-6.9818-.1258-13.9712-.0327-20.9456-.3203-18.6891-.7705-27.2992-9.4571-28.9259-28.038-.9736-11.1216,1.7159-21.5462,4.4931-32.0491,1.5373-5.8142,3.2226-11.6016,4.4395-17.4841,.8073-3.9028,2.9266-6.1827,6.542-7.3499,2.0289-.6551,4.0276-1.616,6.1084-1.8639,16.042-1.9115,32.1855-2.3373,48.1357,.0541,13.1044,1.9647,19.8043,10.3701,21.3039,24.0384q1.9297,17.5868-15.2555,17.5868c-.5821,0-1.1645,.0081-1.7464-.0013-4.2626-.0685-9.2344,1.2128-12.6076-.5552-4.1833-2.1926-.7412-7.8232-1.9264-11.7812-.277-.9248-.176-2.019-.6237-2.8278-4.3654-7.8871-11.8177-4.7568-18.2475-4.8585-4.9058-.0776-8.2929,2.4382-8.4112,7.6695-.2015,8.9151-.1565,17.8385-.0625,26.7567,.0603,5.7347,3.3077,8.3868,8.8924,8.4715,7.9516,.1205,15.9163,.0085,23.8514,.4374,18.4999,.9999,27.7872,10.9733,27.8266,29.5247,.0206,9.7026,.0857,19.4061-.0185,29.1076-.1721,16.0258-8.2709,25.3035-24.0876,27.7568-7.3326,1.1374-14.7237,.4499-22.0867,.6828Z"/><path class="o" d="M947.3897,120.7228c3.8796,.0008,7.7709,.188,11.6353-.0533,3.6578-.2285,4.6887,1.3056,4.5964,4.7664-.1964,7.366,.0856,14.7449-.12,22.1103-.0991,3.5502,1.1338,4.7918,4.6831,4.6765,6.5884-.214,13.1896,.0108,19.7834-.0876,2.8968-.0432,3.8273,.8873,2.9698,3.816-1.6891,5.7689-3.2627,11.5784-4.6436,17.4279-.6595,2.7937-2.0584,3.7967-4.8724,3.6771-4.2599-.1809-8.5521,.2055-12.7953-.1164-4.2173-.3199-5.1604,1.4154-5.1407,5.348,.1437,28.5143,.0503,57.0297,.0931,85.5447,.0141,9.3728,2.1525,11.4313,11.7531,11.7848,9.2036,.3388,9.3197,.3409,9.1593,9.3057-.0928,5.1877,2.2292,11.8379-.9757,15.1849-3.4977,3.6526-10.2921,.8967-15.6351,1.2152-3.276,.1952-6.6016,.0333-9.8748-.2811-18.3832-1.7662-27.1615-11.2436-27.2255-29.7007-.1049-30.2605-.0295-60.5216-.0323-90.7825-.0007-7.5418-.0048-7.5156-7.4405-7.5557-9.3191-.0503-8.0939,.9024-8.1739-7.9515-.0368-4.0732,.1737-8.1574-.06-12.2176-.2011-3.4936,.9833-4.6938,4.592-4.7577,11.0857-.1963,11.083-.3488,11.083-11.4429,0-4.8495,.2978-9.7227-.086-14.5416-.3627-4.5532,1.455-5.7977,5.6758-5.435,3.6586,.3144,7.3656,.0654,11.0513,.0662Z"/><path class="n" d="M321.1425,230.4756c-.0017-16.0966-.1211-32.1948,.0819-48.2889,.051-4.0448-1.1562-5.2762-5.2312-5.277-13.5104-.0027-13.5103-.1604-17.0368-13.3684q-3.037-11.3744,8.9873-11.3744,13.1975,0,13.1976-13.4892c.0001-4.6544,.131-9.3138-.0436-13.9616-.115-3.0602,1.1005-4.0779,4.0799-4.031,8.1433,.1282,16.2927,.168,24.4338-.0173,3.396-.0773,4.3284,1.2546,4.2554,4.4533-.1726,7.5595,.0612,15.1282-.107,22.688-.0717,3.2248,.953,4.5663,4.303,4.4081,4.4505-.2102,8.9221,.0605,13.3778-.0846,3.05-.0993,4.1016,1.1754,4.0242,4.1436-.1464,5.6203-.1799,11.2518,.0101,16.8695,.109,3.2247-1.3957,3.9686-4.2149,3.8912-4.4571-.1225-8.9238,.0809-13.3793-.0671-2.9156-.0969-4.127,.8418-4.1159,3.9586,.1042,29.4774-.0224,58.956,.1805,88.4325,.0537,7.8103,2.6343,9.8134,10.9724,10.2404q10.1011,.5172,10.1011,10.7842c0,14.9888-.0003,15.0434-15.174,14.9567-4.8368-.0276-9.7266-.0457-14.497-.7305-15.8827-2.2797-23.9942-11.5423-24.1671-27.5918-.1672-15.513-.0362-31.0293-.0379-46.5441Z"/><path class="c" d="M966.2414,372.1688c0,7.435-.3167,14.8882,.1095,22.2987,.2916,5.0703-2.3964,4.9922-6.038,5.0946-3.9411,.1109-5.9434-.4798-5.8434-5.2677,.316-15.1275,.0684-30.2661,.1744-45.3996,.014-2.0048-1.3501-5.4997,2.3914-5.3429,3.5824,.1501,8.4044-2.6544,10.4204,3.1879,2.025,5.8684,4.1145,11.7174,6.3439,17.5102,.6316,1.6413,.5539,3.941,4.0916,4.8267,0-6.9603,.3657-13.6169-.118-20.2112-.3736-5.095,1.9269-5.6518,6.0998-5.6143,4.0697,.0366,6.2997,.3902,6.1677,5.5591-.3863,15.1242-.1024,30.2649-.1788,45.3987-.0104,2.0571,1.1325,5.4259-2.6714,5.1136-3.4373-.2823-8.0317,2.5482-10.023-2.9819-2.9423-8.1707-5.9621-16.3135-8.949-24.4682l-1.9772,.2964Z"/><path class="q" d="M1082.7472,368.8068c0-6.9152,.294-13.8472-.1009-20.7397-.2734-4.7701,2.2454-4.8401,5.7014-4.7658,3.4491,.0742,6.3016-.3497,6.1827,4.9167-.3454,15.3165-.0883,30.6461-.1626,45.97-.0101,2.0658,1.1075,5.3816-2.6761,5.1425-3.4367-.2171-7.961,2.3829-9.8719-3.2188-2.3787-6.9732-5.0077-13.8616-7.5801-20.7675-.3743-1.0046-.4867-2.3145-3.1318-2.8303,0,6.993-.3497,13.824,.1137,20.5996,.3532,5.1673-1.2613,6.6755-6.4316,6.5453-4.4626-.1124-5.5095-1.4705-5.4399-5.7262,.2476-15.1263,.0658-30.2593,.1328-45.3893,.0092-2.0817-1.0533-5.4058,2.7457-5.0568,3.4158,.3138,7.9781-2.4894,9.9228,3.0989,2.4219,6.9599,5.0321,13.8547,7.6115,20.7587,.2338,.6258,.8361,1.1139,1.2674,1.6659l1.7169-.203Z"/><path class="i" d="M832.2556,370.8091c0,8.6429-.3644,15.9129,.1235,23.1251,.3458,5.111-1.9482,5.6393-6.1095,5.6548-4.009,.015-5.8871-.6354-5.7904-5.3526,.3099-15.13,.0704-30.2705,.1689-45.4061,.0131-2.0181-1.2871-5.4902,2.4667-5.2898,3.5748,.1909,8.3738-2.646,10.3739,3.2728,2.2979,6.7999,4.831,13.5208,7.3009,20.2617,.3768,1.0284,.5485,2.3261,3.1067,2.6207,0-7.1139,.3079-14.1419-.1068-21.127-.2833-4.773,1.8349-5.4251,5.8133-5.2997,3.8094,.1201,6.5062-.0659,6.3579,5.3793-.4116,15.1251-.1015,30.2689-.1915,45.4046-.0121,2.0341,1.2284,5.452-2.5347,5.2455-3.4413-.1889-8.049,2.5587-10.0464-2.9251-2.3238-6.3802-4.6484-12.7601-7.0214-19.1221-.6645-1.7816-.9045-3.7896-3.9111-6.4423Z"/><path class="q" d="M563.35,368.1432c0,6.7894,.1661,13.5839-.0442,20.3667-.2343,7.5569-3.1481,10.5231-10.7304,10.8577-5.0249,.2217-10.0969,.1649-15.1061-.2597-5.1134-.4334-8.2844-3.5201-8.3497-8.7596-.1815-14.5459-.0794-29.0951-.1825-43.6423-.0185-2.6128,1.2283-3.1821,3.5367-3.3916,9.0607-.8226,9.3394-.6302,9.3401,8.6181,.0009,10.8631,.024,21.7263-.0109,32.5893-.0093,2.8971,.0003,5.3533,4.0758,5.468,4.4367,.1249,4.4285-2.4978,4.4126-5.6479-.0609-12.0267,.2668-24.064-.1485-36.0766-.2029-5.8678,3.3263-4.8654,6.7303-4.9186,3.5209-.0551,7.0452-.7638,6.616,5.0184-.4869,6.5593-.1124,13.1826-.1124,19.7781h-.0267Z"/><path class="i" d="M947.0035,369.0833c-.0023,6.785,.0841,13.5714-.0281,20.3546-.1,6.0489-2.6018,9.1572-8.5661,9.6613-5.5735,.471-11.2493,.4857-16.8216,.0121-5.9063-.5019-8.5031-3.6445-8.5561-9.7186-.1218-13.9567,.1176-27.9178-.1194-41.8715-.1001-5.8962,3.9499-3.972,6.7915-4.095,2.8526-.1235,6.3301-1.2244,6.2112,4.1167-.2761,12.4007-.0435,24.812-.1171,37.2184-.0181,3.044,.247,5.2227,4.231,5.2429,4.0683,.0206,4.1933-2.2866,4.179-5.269-.0587-12.2127,.2452-24.4343-.1377-36.6353-.1886-6.0104,3.5996-4.6069,6.8611-4.7422,3.3922-.1407,6.5258-.5332,6.1838,4.7961-.446,6.9502-.1091,13.9507-.1114,20.9296Z"/><path class="i" d="M734.6084,368.4745c0,6.982,.1732,13.9695-.0511,20.9442-.2048,6.3692-2.8479,9.2433-9.2151,9.778-5.0055,.4204-10.0866,.3998-15.1051,.0959-6.6261-.4011-9.6554-3.2584-9.7941-9.8761-.2965-14.1514-.1151-28.3125-.1972-42.4692-.0139-2.3909,.8331-3.3648,3.3216-3.6389,9.1691-1.01,9.8462-.499,9.8464,8.7059,.0003,10.861,.0167,21.7221-.0102,32.583-.007,2.8268-.2436,5.4167,3.9928,5.4064,4.2838-.0104,4.5514-2.4327,4.5319-5.6764-.072-12.0243,.2284-24.0572-.1459-36.0702-.1611-5.17,2.5592-5.1275,6.113-4.912,3.2627,.1979,7.2365-1.2645,6.8479,4.7714-.4352,6.7601-.0999,13.5698-.0999,20.358h-.035Z"/><path class="g" d="M27.1222,202.8718c.0025-2.3274-.1144-4.6618,.0237-6.981,.4739-7.9575,7.7957-12.7111,15.4168-10.1982,1.6843,.5554,2.1654,1.6576,1.9392,3.05-.677,4.1679,3.1284,10.8529-5.9318,10.4868-1.859-.0751-1.8162,2.1558-1.8297,3.7267-.0176,2.0513,.867,3.4069,3.0023,3.4966,2.7096,.1139,5.4328,.1708,8.1389,.0323,2.9653-.1518,2.9521-2.391,3.0647-4.6403,.7962-15.8962,1.1599-16.2251,16.8082-16.2248,2.1336,0,4.2688-.0498,6.4004,.0158,6.6453,.2044,9.7285,2.7864,10.2295,9.3579,.3817,5.0065,.408,10.0984-.0383,15.0959-.6574,7.3618-8.824,12.1047-15.5725,9.2699-3.2505-1.3654-1.4507-4.409-1.6937-6.6856-.3772-3.5345-.7762-7.2671,4.937-6.5798,2.1737,.2615,2.8358-1.5772,2.8293-3.5544-.0072-2.1883-.6284-3.8681-3.1891-3.9287-2.3262-.055-4.657,.0365-6.9808-.0592-3.1873-.1313-4.3249,1.259-4.5066,4.4902-.9235,16.4275-1.0673,16.4804-17.7342,16.475-1.5517-.0005-3.1045,.0335-4.6549-.0128-7.1926-.215-10.2766-3.1566-10.6439-10.2327-.1104-2.1278-.0171-4.2661-.0146-6.3996Z"/><path class="l" d="M643.2695,343.4188c2.1319,0,4.2749-.1418,6.3936,.0252,8.0123,.6317,12.6337,7.346,9.9893,14.859-1.4728,4.1845-5.3436,1.6915-8.1054,2.1323-2.0183,.3222-4.6092,.5015-4.5325-2.8157,.0679-2.9444-.6062-4.9059-4.1596-4.72-3.8726,.2026-3.3765,2.9357-3.4413,5.4218q-.2149,8.2498,8.0433,8.3295c9.7334,.094,12.3966,2.7198,12.6132,12.4361,.4332,19.4379-1.2067,21.0217-21.0998,20.3778-9.3782-.3035-12.96-4.4712-12.184-13.6384,.2473-2.921,1.6722-3.9829,4.059-3.4155,2.9716,.7064,7.5032-2.5974,8.6998,2.6736,.5994,2.6409,.4463,5.0588,4.1231,4.8255,4.3979-.279,3.2256-3.5872,3.2797-6.0572,.1697-7.7555,.1085-7.7569-7.7944-7.9375-9.7719-.2233-12.4732-2.9137-12.5687-12.5253-.0116-1.163-.0029-2.3261-.0031-3.4892-.0029-15.057,1.4988-16.5455,16.6878-16.4822Z"/><path class="q" d="M55.3396,305.4178c-6.0148-.0046-12.0346,.1485-18.0431-.0452-6.7687-.2182-9.8836-3.3588-10.1623-10.1405-.191-4.6488-.1813-9.317-.0073-13.967,.2637-7.0462,3.4384-10.0545,10.579-10.3614,.7748-.0333,1.552-.0095,2.3281-.0135,6.7124-.0351,9.9862,5.2417,7.2752,11.6606-1.0755,2.5463-3.2803,1.4407-5.0431,1.6146-2.7552,.2717-6.1379-.816-6.1361,3.9355,.0018,4.9411,3.4755,4.2515,6.5105,4.2634,9.3131,.0365,18.6268-.0284,27.9396,.035,2.8887,.0197,4.8059-.4907,4.8528-4.0793,.0463-3.5467-1.7067-4.1291-4.6764-4.1996-2.1097-.0502-5.4048,1.3407-6.0531-1.5884-.7312-3.3035-.1034-6.9123-.0062-10.3866,.0082-.2919,.4315-.6305,.7337-.8471,5.5191-3.9557,17.9895,1.089,18.6948,7.944,.6116,5.9442,.522,12.0298,.0423,17.9967-.4407,5.4814-4.271,7.9595-9.6199,8.1666-.3876,.015-.7759,.0162-1.1639,.0162-6.0148,.001-12.0297,.0007-18.0445-.0039Z"/><path class="p" d="M784.8105,371.125c0-7.7543,.0961-15.5104-.048-23.262-.0564-3.0334,.5382-4.6805,4.0971-4.579,7.3606,.2098,14.7347,.1956,22.0966,.011,3.7579-.0942,3.9024,1.9999,3.8897,4.8147-.0124,2.7775-.0633,5.1169-3.8565,4.8233-2.1196-.164-4.3023,.2383-6.3873-.0755-5.6473-.85-7.044,1.406-7.1431,6.9801-.1107,6.2217,2.9553,6.2424,7.4737,6.297,2.6643,.0321,7.0047-2.3463,7.3024,3.5783,.2166,4.3118-.6996,6.2853-5.6513,6.0803-8.5213-.3526-11.1692,3.6566-8.8713,11.9545,.5769,2.0833,1.9368,2.1208,3.4822,2.1456,2.9071,.0466,5.827,.1906,8.7203-.0112,3.6442-.2542,5.5982,.3593,5.6165,4.885,.0192,4.701-2.2502,4.8484-5.7387,4.7669-6.7813-.1585-13.5736-.1972-20.352,.0156-3.4777,.1092-4.8134-.9281-4.7036-4.5823,.2385-7.941,.0735-15.8941,.0735-23.8422Z"/><path class="f" d="M463.2325,365.435c4.0511-5.5668,4.7731-11.7516,6.6068-17.58,1.1645-3.7015,9.7492-6.4957,12.8882-4.1493,1.6442,1.2291,.3624,2.481-.0221,3.6068-2.0685,6.056-4.0441,12.1559-6.4279,18.0895-3.8706,9.6339-6.8037,19.3859-5.5271,29.9347,.4254,3.5144-1.4692,4.7983-4.4378,4.0518-2.8663-.7208-8.7078,2.6594-8.1776-2.9984,1.6158-17.2409-7.3437-31.4119-12.007-46.834-.5547-1.8344-3.9831-5.2451,.0933-5.8145,3.6538-.5104,9.2862-3.3263,11.4478,2.8506,2.1606,6.1739,3.733,12.5536,5.5633,18.8431Z"/><path class="p" d="M870.0863,375.9069c-.0008-6.0032-.1662-12.0127,.061-18.0074,.1372-3.6193-.7871-5.5558-4.7948-5.0094-3.6271,.4945-5.6088-.3677-5.6296-4.8695-.0222-4.7827,2.4538-4.7609,5.8467-4.7112,7.7445,.1133,15.4967,.2027,23.2357-.0317,3.7305-.113,4.554,1.4023,4.5144,4.7954-.038,3.2467-.5545,5.4247-4.4017,4.8191-4.8731-.7671-6.2267,1.2614-6.0902,6.0726,.3405,11.9968-.1344,24.017,.2199,36.013,.1665,5.6364-3.3699,4.5156-6.4639,4.4722-3.0212-.0424-6.8933,1.3364-6.5774-4.376,.3523-6.371,.0808-12.7766,.08-19.1671Z"/><path class="p" d="M679.6171,343.3459c4.0622,.001,8.1364,.1953,12.183-.056,3.7299-.2316,4.5259,1.4302,4.5072,4.8064-.0182,3.3003-.64,5.4063-4.4406,4.794-5.0876-.8196-6.0543,1.6085-5.9383,6.2161,.3016,11.9855-.1278,23.99,.2007,35.9741,.1565,5.7072-3.5283,4.3411-6.546,4.3701-3.0855,.0297-6.6645,1.1758-6.5141-4.45,.3256-12.1778-.07-24.3741,.1923-36.555,.0911-4.2311-.9697-6.2482-5.4437-5.5486-3.7802,.5911-4.9249-1.0457-4.9962-4.8622-.0773-4.1413,1.6565-4.9316,5.192-4.738,3.8572,.2112,7.7349,.048,11.6037,.049Z"/><path class="b" d="M124.4566,62.6622c-3.2194,4.0721-8.7944,2.979-13.1033,4.7476-2.2798,.9358-4.0299,.533-4.7401-2.3785-3.6291-14.8762-7.3777-29.7233-11.0819-44.5812-.1405-.5637-.5557-1.3274-.3347-1.6722,2.9049-4.532,8.2111-3.1099,12.2929-4.7823,1.5985-.6549,4.1705-1.7779,4.9008,1.0244,4.056,15.5637,7.9188,31.1778,12.0663,47.6422Z"/><path class="k" d="M77.361,137.0665c.8193,4.031-.7328,4.6484-2.575,5.105-14.8726,3.686-29.7402,7.3925-44.6098,11.0911-.376,.0935-.8573,.3608-1.1203,.2233-5.3793-2.8113-3.3883-8.7332-5.3925-12.9952-1.1168-2.3749-.1139-3.9525,2.6087-4.6165,14.8862-3.6306,29.751-7.3489,44.6137-11.0749,1.6903-.4238,3.1584-.5089,3.7037,1.5114,1.1114,4.117,2.132,8.2586,2.7715,10.7558Z"/><path class="d" d="M86.0734,84.2548c.0956,.9976-6.9657,12.8843-7.9135,13.4052-1.5186,.8345-2.6073-.2313-3.7055-.8884-13.1198-7.8503-26.2154-15.7412-39.3173-23.6214-.3317-.1995-.8732-.328-.9657-.6063-1.8578-5.5931,3.7501-8.0873,5.235-12.3312,.6421-1.8351,1.7433-4.163,4.6953-2.3794,13.4178,8.107,26.8678,16.1608,40.3024,24.2402,.8325,.5006,1.6351,1.0534,1.6695,2.1814Z"/><path class="q" d="M997.54,371.0818c-.0005-7.7452,.2757-15.5035-.0926-23.2311-.2689-5.644,3.4258-4.4317,6.5119-4.4556,3.1365-.0243,6.5725-1.0752,6.4615,4.5173-.3113,15.6778-.3051,31.3696-.0052,47.0478,.1082,5.6577-3.4509,4.4152-6.5211,4.4441-3.1279,.0296-6.7262,1.0888-6.4523-4.5109,.3874-7.9199,.0982-15.8728,.0978-23.8116Z"/><path class="e" d="M84.3315,236.8387c-.2044-5.2277-2.8896-9.2161-8.5251-9.1202-6.4311,.1095-13.1813-2.0001-19.2741,1.9516-.5146,.3337-1.627,.3831-2.097,.05-5.1043-3.6182-10.8984-1.9848-16.391-2.0979-7.5796-.1561-10.6844,2.9052-10.8916,10.382-.1876,6.7729,.1089,13.5599-.111,20.3308-.1147,3.5283,1.0566,4.7792,4.6367,4.6828,7.9342-.2135,15.878-.0665,23.818-.0663,8.1336,.0002,16.2673-.022,24.4005,.0136,2.4691,.0109,4.6628,.0652,4.5962-3.4737-.1419-7.5497,.1336-15.1115-.1618-22.6527Zm-41.0033,13.2602c-2.9092-.7551-7.5583,2.0644-7.5408-4.581,.0171-6.5046,4.328-5.1102,7.9056-5.0756,3.3099,.032,7.4335-1.5578,7.566,4.7165,.1464,6.9315-4.6016,4.3234-7.9307,4.9401Zm26.8617-.0812c-.7638-.0488-1.5334-.0072-2.7601-.0072-2.0974-1.2535-6.9383,2.6804-7.3198-3.6711-.259-4.3132,.8174-6.6708,5.6379-5.9685,1.5022,.2188,3.0771,.1702,4.5941,.0104,4.0418-.4257,5.2694,1.3503,5.3408,5.3108,.0797,4.4264-2.3709,4.5249-5.4929,4.3256Z"/><path class="l" d="M606.4758,396.258c-2.0168-4.1906-3.8192-8.4861-5.8844-12.6516-1.4533-2.9307-2.8691-5.3389,1.351-7.5292,2.7418-1.423,3.0823-4.7443,3.0897-7.7494,.0108-4.6526,.0742-9.3064-.0082-13.9576-.1336-7.5436-3.0025-10.6635-10.5016-10.9369-6.5826-.24-13.1848,.0754-19.77-.1266-3.4841-.1068-4.1743,1.4542-4.1522,4.5504,.1129,15.7018,.2456,31.4085-.0515,47.1054-.1063,5.6202,3.4073,4.5011,6.5132,4.4777,3.0457-.0227,6.9138,1.2984,6.4985-4.4139-.381-5.2371-.081-10.5238-.081-16.1292,1.4451,.4871,1.9932,.5068,2.0967,.7313,1.8596,4.0371,3.7294,8.0718,5.4693,12.1612,3.4741,8.1654,4.6676,8.7982,13.4689,7.7268,2.4575-.2992,3.0443-1.0098,1.9616-3.2585Zm-18.879-26.4645c-3.9105,.1989-4.6295-1.7442-4.3404-4.9478,.1038-1.1516,.0168-2.3206,.0168-3.4816,.0063-1.7415,.1089-3.4905-.0168-5.223-.2192-3.0285,1.5463-3.587,3.9969-3.4524,2.2758,.1252,4.9971-.3559,5.1662,3.0897,.1518,3.089-.0839,6.1978,.089,9.2846,.2036,3.6334-1.6037,4.5622-4.9118,4.7306Z"/><path class="g" d="M521.5853,353.2745c-.0677-6.0057-2.758-9.1787-8.6278-9.6318-5.5773-.4306-11.2493-.4247-16.8201,.0654-5.9196,.5208-8.3646,3.6317-8.4806,9.7409-.1143,6.0042-.025,12.0123-.0225,18.0187,.0026,6.0063-.0987,12.0149,.0307,18.0185,.1296,6.0175,2.6383,9.0711,8.6426,9.6089,5.3763,.4815,10.8525,.4789,16.2379,.0724,6.3191-.4769,8.9778-3.5133,9.0449-9.8555,.1268-12.0114,.1302-24.0262-.0051-36.0374Zm-13.6104,35.8826c-.3784,.3358-.8591,.5648-1.4417,.7073-.5828,.1425-1.2674,.1983-2.054,.1874h0c-.3684-.0051-.7102-.0272-1.0255-.0678-1.8923-.2436-2.8441-1.1525-3.0616-3.0517-.0364-.3165-.0523-.6606-.0489-1.0336,.0682-7.2653,.0688-14.5315,.0353-21.7974-.0114-2.4219-.0114-4.844-.0338-7.2658-.0108-1.1479,.1783-1.9968,.5706-2.6128,.3918-.616,.9865-.9992,1.7868-1.2154,.5333-.1441,1.1579-.2141,1.8749-.2296h0c.8125-.0175,1.5028,.0478,2.0799,.2064,.8657,.238,1.4764,.6861,1.8604,1.3808,.3838,.6948,.5413,1.6361,.5009,2.8603-.0398,1.2097-.0623,2.4199-.0736,3.6305-.0338,3.6318,.0327,7.267,.0327,10.9-.0006,3.4876-.0722,6.978-.0367,10.4643,.0119,1.1621,.0358,2.3238,.0782,3.4848,.0617,1.6832-.2869,2.7809-1.0439,3.4522Z"/><path class="i" d="M777.4511,354.0748c-.0898-7.0879-3.1884-10.306-10.3151-10.611-6.7754-.29-13.5743,.0158-20.3579-.1498-3.0971-.0756-4.0029,1.1744-3.9486,4.1287,.1464,7.9483,.05,15.9011,.05,23.852-.0003,7.951,.0637,15.9028-.0358,23.8525-.0338,2.6922,.3261,4.4637,3.6919,4.3706,6.9758-.1931,13.9721,.1331,20.9356-.2254,6.9658-.3586,9.8452-3.3769,9.9572-10.3124,.1879-11.6326,.17-23.2716,.0227-34.9053Zm-12.5526,32.3499c.0341,3.9168-2.3392,4.1445-5.3539,4.284-3.6282,.1678-4.1374-1.7331-4.0563-4.6835,.0335-1.2105,.0523-2.4214,.062-3.6325,.029-3.6335-.0259-7.2693-.0259-10.9035,.0014-3.7797,.0873-7.5628,.0438-11.3407-.0145-1.2593-.0435-2.5179-.0947-3.7757-.1402-3.4315,1.3569-4.3696,4.5101-4.2355,2.8234,.1201,4.9473,.4468,4.9155,4.051-.0896,10.0781-.0876,20.1581-.0006,30.2364Z"/><path class="m" d="M1051.9688,352.8522c-.0426-5.881-3.5048-8.9145-9.0944-9.2765-5.0156-.3249-10.0817-.3623-15.0979-.0634-6.8115,.4058-9.6957,3.5492-9.8688,10.4001-.147,5.809-.0304,11.6247-.0281,17.4374,.002,6.0064-.1453,12.0175,.0424,18.0181,.1982,6.3449,2.8046,9.2846,9.1683,9.805,5.1921,.4245,10.4562,.3222,15.6679,.0564,5.6311-.2871,9.1168-3.3659,9.1868-9.1906,.149-12.394,.1137-24.7915,.0239-37.1865Zm-17.1983,37.3322c-2.9354,.0382-4.163-1.1164-4.1325-4.1233,.1004-9.8537,.0984-19.7096,.0014-29.5633-.0318-3.2266,1.6845-3.8619,4.3949-3.841,2.696,.0208,4.5635,.7665,4.5627,3.8585-.0011,5.0237-.0003,10.0475-.0003,15.0712h.0193c0,4.8307-.0776,9.6631,.0259,14.4916,.0756,3.5308-2.0043,4.0688-4.8714,4.1062Z"/></svg>